<svg width="46" height="46" viewBox="0 0 46 46" fill="none" xmlns="http://www.w3.org/2000/svg">
<circle cx="23" cy="23" r="23" fill="#D2D3D8"/>
<circle cx="22.9999" cy="23" r="20.641" fill="#EFEFEF"/>
<path d="M20.9545 28.4545V28.3182C20.9697 26.8712 21.1212 25.7197 21.4091 24.8636C21.697 24.0076 22.1061 23.3144 22.6364 22.7841C23.1667 22.2538 23.803 21.7652 24.5455 21.3182C24.9924 21.0455 25.3939 20.7235 25.75 20.3523C26.1061 19.9735 26.3864 19.5379 26.5909 19.0455C26.803 18.553 26.9091 18.0076 26.9091 17.4091C26.9091 16.6667 26.7348 16.0227 26.3864 15.4773C26.0379 14.9318 25.572 14.5114 24.9886 14.2159C24.4053 13.9205 23.7576 13.7727 23.0455 13.7727C22.4242 13.7727 21.8258 13.9015 21.25 14.1591C20.6742 14.4167 20.1932 14.822 19.8068 15.375C19.4205 15.928 19.197 16.6515 19.1364 17.5455H16.2727C16.3333 16.2576 16.6667 15.1553 17.2727 14.2386C17.8864 13.322 18.6932 12.6212 19.6932 12.1364C20.7008 11.6515 21.8182 11.4091 23.0455 11.4091C24.3788 11.4091 25.5379 11.6742 26.5227 12.2045C27.5152 12.7348 28.2803 13.4621 28.8182 14.3864C29.3636 15.3106 29.6364 16.3636 29.6364 17.5455C29.6364 18.3788 29.5076 19.1326 29.25 19.8068C29 20.4811 28.6364 21.0833 28.1591 21.6136C27.6894 22.1439 27.1212 22.6136 26.4545 23.0227C25.7879 23.4394 25.2538 23.8788 24.8523 24.3409C24.4508 24.7955 24.1591 25.3371 23.9773 25.9659C23.7955 26.5947 23.697 27.3788 23.6818 28.3182V28.4545H20.9545ZM22.4091 35.1818C21.8485 35.1818 21.3674 34.9811 20.9659 34.5795C20.5644 34.178 20.3636 33.697 20.3636 33.1364C20.3636 32.5758 20.5644 32.0947 20.9659 31.6932C21.3674 31.2917 21.8485 31.0909 22.4091 31.0909C22.9697 31.0909 23.4508 31.2917 23.8523 31.6932C24.2538 32.0947 24.4545 32.5758 24.4545 33.1364C24.4545 33.5076 24.3598 33.8485 24.1705 34.1591C23.9886 34.4697 23.7424 34.7197 23.4318 34.9091C23.1288 35.0909 22.7879 35.1818 22.4091 35.1818Z" fill="#D2D3D8"/>
</svg>
